<svg width="1551" height="1551" xmlns="http://www.w3.org/2000/svg" xmlns:xlink="http://www.w3.org/1999/xlink" overflow="hidden"><defs><clipPath id="clip0"><rect x="3559" y="855" width="1551" height="1551"/></clipPath></defs><g clip-path="url(#clip0)" transform="translate(-3559 -855)"><path d="M4334 2332 4334 2400.74" stroke="#000000" stroke-width="10.3125" stroke-linecap="round" stroke-linejoin="round" stroke-miterlimit="10" fill="none" fill-rule="evenodd"/><path d="M0 0 68.7428 0.000360892" stroke="#000000" stroke-width="10.3125" stroke-linecap="round" stroke-linejoin="round" stroke-miterlimit="10" fill="none" fill-rule="evenodd" transform="matrix(1 0 0 -1 3564 1630)"/><path d="M0 0 34.074 59.0189" stroke="#000000" stroke-width="10.3125" stroke-linecap="round" stroke-linejoin="round" stroke-miterlimit="10" fill="none" fill-rule="evenodd" transform="matrix(-1 0 0 1 3983.07 2239)"/><path d="M4943 1982 5002.05 2016.09" stroke="#000000" stroke-width="10.3125" stroke-linecap="round" stroke-linejoin="round" stroke-miterlimit="10" fill="none" fill-rule="evenodd"/><path d="M0 0 59.0503 34.0928" stroke="#000000" stroke-width="10.3125" stroke-linecap="round" stroke-linejoin="round" stroke-miterlimit="10" fill="none" fill-rule="evenodd" transform="matrix(-1 0 0 1 3726.05 1982)"/><path d="M4686 2239 4720.07 2298.02" stroke="#000000" stroke-width="10.3125" stroke-linecap="round" stroke-linejoin="round" stroke-miterlimit="10" fill="none" fill-rule="evenodd"/><path d="M0 0 0.000360892 68.7428" stroke="#000000" stroke-width="10.3125" stroke-linecap="round" stroke-linejoin="round" stroke-miterlimit="10" fill="none" fill-rule="evenodd" transform="matrix(-1 0 0 1 4334 860)"/><path d="M5036 1630 5104.74 1630" stroke="#000000" stroke-width="10.3125" stroke-linecap="round" stroke-linejoin="round" stroke-miterlimit="10" fill="none" fill-rule="evenodd"/><path d="M0 0 34.074 59.0178" stroke="#000000" stroke-width="10.3125" stroke-linecap="round" stroke-linejoin="round" stroke-miterlimit="10" fill="none" fill-rule="evenodd" transform="matrix(-1 0 0 1 4720.07 963)"/><path d="M3667 1245 3725.31 1278.66" stroke="#000000" stroke-width="10.3125" stroke-linecap="round" stroke-linejoin="round" stroke-miterlimit="10" fill="none" fill-rule="evenodd"/><path d="M0 0 59.051 34.0928" stroke="#000000" stroke-width="10.3125" stroke-linecap="round" stroke-linejoin="round" stroke-miterlimit="10" fill="none" fill-rule="evenodd" transform="matrix(-1 0 0 1 5002.05 1245)"/><path d="M3949 963 3983.07 1022.02" stroke="#000000" stroke-width="10.3125" stroke-linecap="round" stroke-linejoin="round" stroke-miterlimit="10" fill="none" fill-rule="evenodd"/><text font-family="Calibri,Calibri_MSFontService,sans-serif" font-weight="400" font-size="110" transform="matrix(1 0 0 1 4278.66 1039)">12<tspan font-size="110" x="27.0708" y="1253">6</tspan><tspan font-size="110" x="345.43" y="84">1</tspan><tspan font-size="110" x="584.072" y="322">2</tspan><tspan font-size="110" x="669.344" y="628">3</tspan><tspan font-size="110" x="586.26" y="938">4</tspan><tspan font-size="110" x="357.197" y="1169">5</tspan><tspan font-size="110" x="-277.454" y="1179">7</tspan><tspan font-size="110" x="-516.393" y="938">8</tspan><tspan font-size="110" x="-608.485" y="628">9</tspan><tspan font-size="110" x="-528.396" y="310">10</tspan><tspan font-size="110" x="-299.516" y="85">11</tspan></text></g></svg>